<svg width="15" height="15" viewBox="0 0 15 15" fill="none" xmlns="http://www.w3.org/2000/svg">
<path fill-rule="evenodd" clip-rule="evenodd" d="M8.90625 2.4375L9.46875 3H11.4375V4.125H3.5625V3H5.53125L6.09375 2.4375H8.90625ZM7.49965 7.83161L8.69215 6.63911L9.48527 7.43224L8.29277 8.62474L9.48527 9.81724L8.69215 10.6104L7.49965 9.41786L6.30715 10.6104L5.51402 9.81724L6.70652 8.62474L5.5084 7.43224L6.30152 6.63911L7.49965 7.83161ZM4.12544 11.4379C4.12544 12.0567 4.63169 12.5629 5.25044 12.5629H9.75044C10.3692 12.5629 10.8754 12.0567 10.8754 11.4379V4.68794H4.12544V11.4379ZM9.75 5.8125H5.25V11.4375H9.75V5.8125Z" fill="black" fill-opacity="0.54"/>
</svg>
