<svg xmlns="http://www.w3.org/2000/svg" width="16" height="16" viewBox="0 0 16 16" fill="none">
<path fill-rule="evenodd" clip-rule="evenodd" d="M14.6668 5.66669C14.6668 4.92669 14.0735 4.33335 13.3335 4.33335H10.6668V3.00002C10.6668 2.26002 10.0735 1.66669 9.3335 1.66669H6.66683C5.92683 1.66669 5.3335 2.26002 5.3335 3.00002V4.33335H2.66683C1.92683 4.33335 1.34016 4.92669 1.34016 5.66669L1.3335 13C1.3335 13.74 1.92683 14.3334 2.66683 14.3334H13.3335C14.0735 14.3334 14.6668 13.74 14.6668 13V5.66669ZM9.3335 4.33335V3.00002H6.66683V4.33335H9.3335ZM2.66683 5.66669V13H13.3335V5.66669H2.66683Z" fill="#8C8C8C"/>
</svg>