<svg width="16" height="24" viewBox="0 0 16 24" fill="none" xmlns="http://www.w3.org/2000/svg">
<path fill-rule="evenodd" clip-rule="evenodd" d="M12.6667 18.6666C13.4 18.6666 14 18.0666 14 17.3333V7.99992C14 7.26659 13.4 6.66659 12.6667 6.66659H12V5.33325H10.6667V6.66659H5.33333V5.33325H4V6.66659H3.33333C2.59333 6.66659 2.00667 7.26659 2.00667 7.99992L2 17.3333C2 18.0666 2.59333 18.6666 3.33333 18.6666H12.6667ZM6 11.3333H4.66667V12.6666H6V11.3333ZM3.33333 9.33325H12.6667V7.99992H3.33333V9.33325ZM12.6667 10.6666V17.3333H3.33333V10.6666H12.6667ZM10 12.6666H11.3333V11.3333H10V12.6666ZM8.66667 12.6666H7.33333V11.3333H8.66667V12.6666Z" fill="white"/>
</svg>
