<svg width="282" height="342" viewBox="0 0 282 342" fill="none" xmlns="http://www.w3.org/2000/svg">
<g clip-path="url(#clip0_2037_0)">
<path d="M132.086 168.675L153.771 175.399L141.47 197.78L121.461 188.078L131.918 168.675H132.086Z" fill="#DDBFA8"/>
<path d="M158.318 17.6363L138.648 65.8076L210.342 94.9726L230.011 46.8012L158.318 17.6363Z" fill="#936052"/>
<path d="M130.921 74.168L127.067 72.5957C121.269 70.2204 119.459 61.3551 122.978 52.7575L138.06 16.025C141.58 7.42731 149.154 2.37576 154.919 4.751L158.773 6.32333C160.885 7.19314 161.555 10.4047 160.248 13.5159L137.055 70.0866C135.748 73.1978 132.999 75.0378 130.921 74.168Z" fill="#A36652"/>
<path d="M123.445 69.7184C120.663 65.8043 120.295 59.2139 122.942 52.7573L138.025 16.0248C140.672 9.5682 145.566 5.11882 150.325 4.28247L123.445 69.7184Z" fill="#936052"/>
<path d="M207.973 105.849L211.861 107.421C217.693 109.797 225.301 104.678 228.82 95.98L243.903 58.913C247.422 50.2484 245.545 41.2828 239.713 38.9075L235.825 37.3352C233.714 36.4654 230.932 38.3388 229.658 41.4835L206.465 98.5894C205.191 101.734 205.862 104.979 207.973 105.849Z" fill="#A36652"/>
<path d="M216.484 107.856C221.244 107.02 226.171 102.504 228.818 95.9803L243.901 58.9133C246.548 52.3898 246.146 45.7325 243.331 41.8184L216.484 107.856Z" fill="#936052"/>
<path d="M199.729 97.4518L193.696 93.9391C180.323 86.1109 165.877 80.2565 150.795 76.5431L144.527 75.0042L168.961 15.1885L176.971 20.5746C188.199 28.1352 200.835 33.2871 214.141 35.7627L224.162 37.6361L199.729 97.4518Z" fill="#E2B74B"/>
<path d="M197.515 97.8868L197.482 97.8534C196.242 97.3515 195.672 95.9465 196.174 94.7421L219.703 37.0675C220.206 35.8297 221.613 35.261 222.82 35.7628L222.853 35.7962C224.093 36.298 224.663 37.7031 224.161 38.9074L200.599 96.5821C200.129 97.7865 198.722 98.3886 197.515 97.8868Z" fill="#A36652"/>
<path d="M142.816 75.64L142.782 75.6065C141.542 75.1047 140.973 73.6996 141.475 72.4953L165.037 14.8206C165.54 13.5829 166.948 13.0141 168.154 13.5159L168.188 13.5494C169.428 14.0512 169.998 15.4563 169.495 16.6606L145.933 74.3353C145.43 75.5396 144.023 76.1083 142.816 75.64Z" fill="#A36652"/>
<path d="M111.241 267.733L169.224 110.098L158.7 107.488L92.003 260.105C87.8135 269.907 90.4277 273.688 95.7903 275.862C101.22 278.037 107.454 277.769 111.241 267.733Z" fill="#936052"/>
<path d="M175.757 113.041C176.26 111.77 174.752 109.897 172.238 108.559C178.64 103.44 184.002 96.0802 182.628 88.0178L180.249 86.8804L167.68 81.6616L165.2 80.7917C158.564 85.676 157.29 94.7421 158.396 102.905C155.614 102.068 153.167 102.336 152.631 103.641L152.598 103.708C151.994 105.18 154.139 107.455 157.424 108.793L168.752 113.376C172.004 114.681 175.154 114.547 175.757 113.075V113.041Z" fill="#936052"/>
<path d="M162.827 186.841L153.677 175.433C153.576 175.299 153.409 175.266 153.241 175.299L125.155 184.968C124.92 185.035 124.82 185.302 124.92 185.503L129.11 194.368C129.177 194.502 129.311 194.602 129.445 194.602L138.93 195.138C139.399 195.171 139.433 195.84 138.963 195.941H138.93C138.796 195.974 137.723 195.674 137.69 195.808L120.795 241.102C120.728 241.236 120.762 241.403 120.896 241.537L126.629 247.393C126.629 247.426 126.663 247.426 126.696 247.426L137.757 255.321C137.79 255.355 137.857 255.388 137.857 255.455L147.644 272.216C147.745 272.416 147.979 272.483 148.18 272.383L184.177 253.414C184.411 253.281 184.478 252.98 184.277 252.779L165.073 233.71C164.972 233.61 164.938 233.476 164.972 233.376L170.804 197.045C170.837 196.944 170.804 196.81 170.737 196.743L162.827 186.841Z" fill="#EDD0B3"/>
<path d="M132.193 168.508L123.457 168.425C120.182 168.394 117.149 170.143 115.537 172.994L99.1632 201.942C97.5058 204.872 97.6223 208.482 99.4649 211.299L107.385 223.408C108.408 224.972 110.377 225.619 112.129 224.966L119.783 222.114C120.988 221.665 121.904 220.664 122.244 219.424L125.016 209.315C125.13 208.899 125.176 208.467 125.152 208.036L123.915 185.737L132.193 168.508Z" fill="#EDD0B3"/>
<path d="M184.945 245.586L128.738 277.969L158.702 342L281.505 341.833L184.945 245.586Z" fill="#ADCDF6"/>
<path d="M106.44 33.2539L91.3909 44.1934C89.8492 45.3308 87.6371 44.8625 86.6651 43.1898L86.6316 43.1563C85.6261 41.4167 86.4305 39.2087 88.3074 38.5062L105.736 31.9827C106.574 31.6816 107.144 32.7521 106.44 33.2539Z" fill="#595959"/>
<path d="M108.72 18.9355L101.145 4.21579C100.374 2.6769 101.078 0.836934 102.687 0.201309L102.754 0.167855C104.43 -0.467771 106.24 0.535849 106.608 2.27546L109.96 18.4672C110.128 19.2366 109.089 19.6046 108.72 18.9355Z" fill="#595959"/>
<path d="M103.391 24.5226L86.0292 19.4042C84.2194 18.8689 83.2809 16.8951 84.0183 15.189L84.0518 15.1221C84.7892 13.3156 86.9677 12.6465 88.6435 13.6501L103.994 23.2179C104.664 23.6528 104.195 24.7568 103.391 24.5226Z" fill="#595959"/>
<path d="M108.054 336.648H11.125V329.456C11.125 324.07 15.5156 319.687 20.9117 319.687H98.3007C103.697 319.687 108.087 324.07 108.087 329.456V336.648H108.054Z" fill="#936052"/>
<path d="M118.142 341.833H2.74559C1.50549 341.833 0.5 340.83 0.5 339.592V331.63C0.5 330.392 1.50549 329.389 2.74559 329.389H118.142C119.382 329.389 120.388 330.392 120.388 331.63V339.592C120.388 340.83 119.382 341.833 118.142 341.833Z" fill="#A36652"/>
<path opacity="0.1" d="M108.054 329.456H11.125V328.118C11.125 327.248 11.8288 326.545 12.7003 326.545L107.853 328.753L108.054 329.456Z" fill="#272525"/>
</g>
<defs>
<clipPath id="clip0_2037_0">
<rect width="281" height="342" fill="white" transform="translate(0.5 0.000244141)"/>
</clipPath>
</defs>
</svg>
