<svg xmlns="http://www.w3.org/2000/svg" width="14" height="13" viewBox="0 0 14 13" fill="none">
  <path fill-rule="evenodd" clip-rule="evenodd" d="M6.99475 1.08337C4.00475 1.08337 1.5835 3.51004 1.5835 6.50004C1.5835 9.49004 4.00475 11.9167 6.99475 11.9167C9.99016 11.9167 12.4168 9.49004 12.4168 6.50004C12.4168 3.51004 9.99016 1.08337 6.99475 1.08337ZM7.00016 10.8334C4.606 10.8334 2.66683 8.89421 2.66683 6.50004C2.66683 4.10587 4.606 2.16671 7.00016 2.16671C9.39433 2.16671 11.3335 4.10587 11.3335 6.50004C11.3335 8.89421 9.39433 10.8334 7.00016 10.8334ZM6.4585 3.79171H7.271V6.63546L9.7085 8.08171L9.30225 8.74796L6.4585 7.04171V3.79171Z" fill="white"/>
</svg>