<svg width="19" height="16" viewBox="0 0 19 16" fill="none" xmlns="http://www.w3.org/2000/svg">
<path fill-rule="evenodd" clip-rule="evenodd" d="M17.3327 5.08334C17.3327 4.15834 16.591 3.41667 15.666 3.41667H12.3327V1.75C12.3327 0.825002 11.591 0.0833359 10.666 0.0833359H7.33268C6.40768 0.0833359 5.66602 0.825002 5.66602 1.75V3.41667H2.33268C1.40768 3.41667 0.674349 4.15834 0.674349 5.08334L0.666016 14.25C0.666016 15.175 1.40768 15.9167 2.33268 15.9167H15.666C16.591 15.9167 17.3327 15.175 17.3327 14.25H15.666H2.33268V5.08334H15.666H17.3327ZM10.666 3.41667V1.75H7.33268V3.41667H10.666ZM17.7493 7.16667H14.8327V12.1667H16.0827V10.5H17.7493C18.416 10.5 18.9993 9.91667 18.9993 9.25V8.41667C18.9993 7.75 18.416 7.16667 17.7493 7.16667ZM16.0827 9.25H17.7493V8.41667H16.0827V9.25Z" fill="#1B5198"/>
</svg>
