<svg width="19" height="16" viewBox="0 0 19 16" fill="none" xmlns="http://www.w3.org/2000/svg">
<path fill-rule="evenodd" clip-rule="evenodd" d="M15.666 3.41666C16.591 3.41666 17.3327 4.15833 17.3327 5.08333H15.666H2.33268V14.25H15.666H17.3327C17.3327 15.175 16.591 15.9167 15.666 15.9167H2.33268C1.40768 15.9167 0.666016 15.175 0.666016 14.25L0.674349 5.08333C0.674349 4.15833 1.40768 3.41666 2.33268 3.41666H5.66602V1.74999C5.66602 0.824995 6.40768 0.0833282 7.33268 0.0833282H10.666C11.591 0.0833282 12.3327 0.824995 12.3327 1.74999V3.41666H15.666ZM10.666 1.74999V3.41666H7.33268V1.74999H10.666ZM16.0827 8.41666H14.8327V7.16666H18.5827V8.41666H17.3327V12.1667H16.0827V8.41666Z" fill="#FFCF33"/>
</svg>
